# xmcd
#
# Track frame offsets: 
#        150
#        18940
#        31593
#        50960
#        68764
#        88376
#        105125
#        128547
#        145814
#        172465
#        187408
#
# Disc length: 2802 seconds
#
# Revision: 1
# Processed by: cddbd v1.5.2PL0 Copyright (c) Steve Scherf et al.
# Submitted via: ExactAudioCopy v0.95b4
#
DISCID=9a0af00b
DTITLE=Gloria Gaynor - Never Can Say Goodbye
DYEAR=2003
DGENRE=Soul
TTITLE0=Reach Out I'll Be There
TTITLE1=EveryBreath You Take
TTITLE2=The Power of Love
TTITLE3=The Heat Is On
TTITLE4=I Will Survive
TTITLE5=Suddenly
TTITLE6=Can't Take My Eyes From You
TTITLE7=The Eye Of The Tiger
TTITLE8=I Am What I Am
TTITLE9=The Reason For The Season
TTITLE10=Never Can Say Goodbye
EXTD=YEAR: 2003.03.13
EXTT0=
EXTT1=
EXTT2=
EXTT3=
EXTT4=
EXTT5=
EXTT6=
EXTT7=
EXTT8=
EXTT9=
EXTT10=
PLAYORDER=
